<?xml version="1.0" encoding="UTF-8"?>
<svg version="1.1" viewBox="0 0 1600 192" width="1280" height="1280" xmlns="http://www.w3.org/2000/svg">
<path transform="translate(1506 6)" d="m0 0c3.51 1.34 5.09 3.22 7.62 6 1.35 1.34 2.7 2.67 4.06 4 2.87 2.86 5.42 5.83 7.94 9 0.99 0.66 1.98 1.32 3 2 0.309 0.629 0.619 1.26 0.938 1.91 1.3 2.55 2.85 3.8 5.06 5.59 2.91 2.35 4.38 4.17 6 7.5 1.54 1.56 1.54 1.56 3.31 2.94 8.64 7.16 8.64 7.16 9.69 12.1 0.99 0.33 1.98 0.66 3 1 3.13 2.82 5.14 5.27 7 9 0.99 0.33 1.98 0.66 3 1 1.68 1.74 1.68 1.74 3.44 3.88 1.84 2.24 3.41 4.02 5.79 5.7 0.587 0.472 1.17 0.944 1.78 1.43v3c0.897 0.371 0.897 0.371 1.81 0.75 2.49 1.42 3.55 2.94 5.19 5.25 0.66 0.33 1.32 0.66 2 1 1.31 3.4 1.53 6.41 1 10-2.76 4.65-6.21 9.64-11.2 12.1-1.97 0.782-1.97 0.782-2.7 2.74-1.33 2.59-2.93 4.21-5.02 6.24-0.774 0.763-1.55 1.53-2.35 2.31-0.81 0.789-1.62 1.58-2.46 2.39-5.07 4.96-10 9.92-14.6 15.3-2.91 3.36-5.96 6.59-9 9.82-0.652 0.695-1.3 1.39-1.98 2.11-4.44 4.71-8.97 9.31-13.6 13.8-2.01 2.05-3.85 4.16-5.69 6.36-3.58 4.17-7.65 8.07-12.4 10.8-0.99-0.33-1.98-0.66-3-1v-2h-2c-1.48-1.47-1.48-1.47-3.19-3.5-1.91-2.27-3.82-4.51-5.86-6.67-0.643-0.686-1.29-1.37-1.95-2.08-0.897-0.936-0.897-0.936-1.81-1.89-1.19-1.86-1.19-1.86-0.974-3.74 0.965-2.6 2.21-3.89 4.19-5.82 0.718-0.711 1.44-1.42 2.18-2.16 0.782-0.76 1.56-1.52 2.37-2.3 0.803-0.794 1.61-1.59 2.43-2.41 2.57-2.54 5.16-5.08 7.75-7.61 2.56-2.52 5.13-5.03 7.68-7.56 1.59-1.57 3.18-3.14 4.78-4.7 8.17-8.03 8.17-8.03 14.4-17.6-1.91 2.34e-4 -1.91 2.34e-4 -3.86 4.73e-4 -43.7 0.00533-87.3 0.0104-131 0.0154-1.32 1.5e-4 -1.32 1.5e-4 -2.67 3.02e-4 -94.3 0.0107-189 0.0199-283 0.0262-2.1 1.39e-4 -4.19 2.79e-4 -6.29 4.18e-4 -44 0.00292-88 0.00564-132 0.00812-22.1 0.00125-44.2 0.00253-66.3 0.00385-3.34 1.99e-4 -6.67 3.97e-4 -10 5.95e-4 -51.3 0.00306-103 0.00696-154 0.0133-1.65 2.05e-4 -1.65 2.05e-4 -3.34 4.15e-4 -17.8 0.00221-35.5 0.0045-53.3 0.00679-51.2 0.00661-102 0.0127-154 0.0153-1.05 5.35e-5 -2.11 1.07e-4 -3.2 1.62e-4 -23.2 0.00117-46.3 0.00206-69.5 0.0027-9.32 2.62e-4 -18.6 5.62e-4 -28 8.76e-4 -1.53 5.01e-5 -1.53 5.01e-5 -3.09 1.01e-4 -32.8 0.00109-65.6 0.00536-98.4 0.0113-33.1 0.00598-66.2 0.00881-99.2 0.00734-4.59-2.03e-4 -9.17-3.7e-4 -13.8-5.16e-4 -0.899-2.99e-5 -1.8-5.98e-5 -2.72-9.05e-5 -14.1-3.78e-4 -28.3 0.00258-42.4 0.00699-14 0.00428-27.9 0.0049-41.9 0.00182-7.45-0.00155-14.9-0.0016-22.3 0.00305-25.5 0.015-51.1 0.0245-76.6-0.396-2.02-0.032-4.04-0.0592-6.06-0.0815-2.73-0.0319-5.46-0.0827-8.18-0.139-0.8-0.00601-1.6-0.012-2.42-0.0182-2.2-0.0588-2.2-0.0588-5.67-0.489-2.04-3.06-2.31-4.12-2.6-7.63l-0.24-2.69c-0.0741-0.924-0.148-1.85-0.225-2.8-0.154-1.84-0.311-3.67-0.473-5.51-0.0658-0.814-0.132-1.63-0.199-2.47-0.0716-1.91-0.0716-1.91-1.27-2.9-0.288-3.24-0.394-5.31 1.24-8.17 1.76-1.83 1.76-1.83 3.78-2.33 1.17-3.84e-4 1.17-3.84e-4 2.37-7.76e-4 0.905-0.01 1.81-0.02 2.74-0.0303 0.998 0.00938 2 0.0188 3.03 0.0284 1.6-0.00871 1.6-0.00871 3.22-0.0176 3.61-0.0147 7.21-6.59e-4 10.8 0.013 2.61-0.00466 5.21-0.0111 7.82-0.0191 5.71-0.0147 11.4-0.0144 17.1-0.00458 8.54 0.0146 17.1 0.0063 25.6-0.00666 14.6-0.0214 29.1-0.0238 43.7-0.016 14.8 0.00781 29.5 0.00694 44.3-0.00463 1.4-0.00109 1.4-0.00109 2.82-0.0022 4.75-0.00374 9.49-0.00761 14.2-0.0115 34.4-0.0282 68.8-0.037 103-0.0355 34.1 0.00134 68.1-0.00557 102-0.0236 1.59-8.33e-4 1.59-8.33e-4 3.2-0.00168 9.65-0.00507 19.3-0.0103 29-0.0156 24-0.0132 48-0.0251 72-0.0361 1.64-7.55e-4 1.64-7.55e-4 3.31-0.00152 53.2-0.0244 106-0.034 160-0.0425 18.5-0.00294 36.9-0.00594 55.4-0.00922 1.72-3.04e-4 1.72-3.04e-4 3.47-6.15e-4 53.2-0.00952 106-0.0295 160-0.0522 3.45-0.00147 6.91-0.00294 10.4-0.00441 22.9-0.00972 45.8-0.0196 68.7-0.0297 45.5-0.0199 91.1-0.0388 137-0.057 2.17-8.65e-4 4.34-0.00173 6.51-0.0026 97.7-0.039 195-0.0657 293-0.087 0.915-2e-4 1.83-4e-4 2.77-6.06e-4 45.8-0.00999 91.5-0.0193 137-0.0277-0.808-0.797-1.62-1.59-2.45-2.41-1.08-1.07-2.16-2.14-3.24-3.21-0.53-0.522-1.06-1.04-1.61-1.58-3.46-3.44-6.62-7.01-9.71-10.8-2.7-2.84-5.5-5.43-8.5-7.94-3.27-2.76-5.81-5.73-8.5-9.06-0.784-0.784-1.57-1.57-2.38-2.38-4.4-4.4-4.4-4.4-6.5-6.62-0.616-0.639-1.23-1.28-1.87-1.94-1.26-2.06-1.26-2.06-1.14-4.58 0.944-2.65 1.97-4.12 3.88-6.17 2.28-2.46 2.28-2.46 4-5.31h2c0.402-1.14 0.402-1.14 0.812-2.31 2.51-5.69 2.51-5.69 6.56-5.69z" fill="#F3F4F6"/>
<path transform="translate(1508,141)" d="m0 0c0 5.01-4.15 8.13-7.5 11.6-0.825 0.804-1.65 1.61-2.5 2.44-0.825 0.846-1.65 1.69-2.5 2.56-2.39 2.33-4.86 4.4-7.5 6.44 0.544-3.98 2.43-5.78 5.25-8.55 0.854-0.844 1.71-1.69 2.59-2.56 0.898-0.873 1.8-1.75 2.72-2.64 0.902-0.888 1.8-1.78 2.73-2.69 2.23-2.19 4.46-4.38 6.71-6.56z" fill="#000002"/>
</svg>
